inDegrees=no
num_controls=7
num_derivatives=13
num_iterations=126
num_multipliers=7
num_parameters=0
num_slacks=7
num_states=26
objective=0.452993
objective_accelerations=0.047918
objective_balance=0.001032
objective_effort=0.037275
objective_height=0.361136
objective_ligament=0.005632
solver_duration=1539.232388
status=Solve_Succeeded
success=true
DataType=double
version=3
OpenSimVersion=4.5
endheader
time	/jointset/ground_pelvis/pelvis_tilt/value	/jointset/ground_pelvis/pelvis_tx/value	/jointset/ground_pelvis/pelvis_ty/value	/jointset/hip_r/hip_flexion_r/value	/jointset/hip_r/hip_adduction_r/value	/jointset/hip_r/hip_rotation_r/value	/jointset/back/lumbar_extension/value	/jointset/patellofemoral_r/patellar_flexion_r/value	/jointset/knee_r/knee_flexion_r/value	/jointset/knee_r/knee_adduction_r/value	/jointset/knee_r/knee_rotation_r/value	/jointset/ankle_r/ankle_angle_r/value	/jointset/subtalar_r/subtalar_angle_r/value	/jointset/ground_pelvis/pelvis_tilt/speed	/jointset/ground_pelvis/pelvis_tx/speed	/jointset/ground_pelvis/pelvis_ty/speed	/jointset/hip_r/hip_flexion_r/speed	/jointset/hip_r/hip_adduction_r/speed	/jointset/hip_r/hip_rotation_r/speed	/jointset/back/lumbar_extension/speed	/jointset/patellofemoral_r/patellar_flexion_r/speed	/jointset/knee_r/knee_flexion_r/speed	/jointset/knee_r/knee_adduction_r/speed	/jointset/knee_r/knee_rotation_r/speed	/jointset/ankle_r/ankle_angle_r/speed	/jointset/subtalar_r/subtalar_angle_r/speed	/forceset/tau_hip_flexion_r	/forceset/tau_hip_adduction_r	/forceset/tau_hip_rotation_r	/forceset/tau_knee_flexion_r	/forceset/tau_ankle_angle_r	/forceset/tau_subtalar_angle_r	/forceset/tau_lumbar_extension	lambda_cid13_p0	lambda_cid14_p0	lambda_cid14_p1	lambda_cid14_p2	lambda_cid14_p3	lambda_cid14_p4	lambda_cid14_p5	/jointset/ground_pelvis/pelvis_tilt/accel	/jointset/ground_pelvis/pelvis_tx/accel	/jointset/ground_pelvis/pelvis_ty/accel	/jointset/hip_r/hip_flexion_r/accel	/jointset/hip_r/hip_adduction_r/accel	/jointset/hip_r/hip_rotation_r/accel	/jointset/back/lumbar_extension/accel	/jointset/patellofemoral_r/patellar_flexion_r/accel	/jointset/knee_r/knee_flexion_r/accel	/jointset/knee_r/knee_adduction_r/accel	/jointset/knee_r/knee_rotation_r/accel	/jointset/ankle_r/ankle_angle_r/accel	/jointset/subtalar_r/subtalar_angle_r/accel	gamma_cid13_p0	gamma_cid14_p0	gamma_cid14_p1	gamma_cid14_p2	gamma_cid14_p3	gamma_cid14_p4	gamma_cid14_p5
0	-0.0001362016807180606	0.1280027388364725	0.9343176632877616	0.1934211968871041	-0.2166824010052789	-0.2382592324879618	-0.2903787966825928	0.2311786273363405	0.2311786273363406	0.1078821853596312	0.1630725135006441	0.089344008118978	0.078085094211259	0	0	0	0	0	0	0	0	0	0	0	0	0	0.1145667150357488	-0.0485779254829562	0.0006973720599070869	-0.2534804081534704	0.140082733010188	-0.07716807015697776	-0.03251778125472529	-29.55142820163311	-0.8871437983262649	-29.95874326093313	0.9596851963897306	-2.500988693091558	-609.0181373021104	45.30301044366404	-1.81720936241128	-1.776974441349594	-0.8636899965851471	9.835497102614124	0.02107353425692347	1.900289634733391	-6.378853039907532	10.24805205471201	10.24805205471002	-2.738423421433929	0.5703288650959638	2.902036353768909	0.8789999694310419	2.792057066719353e-08	1.718623991680967e-08	-2.300502302927568e-07	1.657896924983509e-07	8.453331657231918e-09	1.435177890779709e-07	-2.049160981100875e-07
0.01	-0.000220911993070644	0.1279148713608003	0.934275763355909	0.1938997961976762	-0.2166791710954936	-0.2381649235008706	-0.2906982607157408	0.2316805382360586	0.2316805382360595	0.1077434386890967	0.163097892553605	0.08948622919585834	0.07813088261912042	-0.01686529177620767	-0.01749908449247577	-0.00834924789011595	0.09526482791509436	0.0006803352192137029	0.0187551138583061	-0.06337853304187765	0.0998567249313332	0.09985672493132532	-0.02768106354201274	0.005020377278694364	0.02828077417849013	0.009153861068589132	0.1080208680062126	-0.05898101474154255	0.001260388579601794	-0.2452240625715025	0.1258898237915898	-0.06440692917089581	-0.02701627890645556	-29.55748007364944	-4.793624527961028	-24.71568129829903	-0.3158450385920881	-0.7256406805627189	-610.9296200921233	55.58562669122094	-1.609676002391044	-1.725212166195923	-0.8159027096096364	9.30372008837532	0.09666085731100385	1.847154390847661	-6.240212398199323	9.775658876340051	9.775658876340142	-2.772728506072568	0.4596103333443535	2.766586430500237	0.932989518291267	4.287727930127803e-08	5.9215756997785e-09	-3.115241030300934e-07	2.428412738413135e-07	2.862945938742791e-08	2.520677435364004e-08	-2.933663985446751e-07
0.02	-0.0004719726066172342	0.1276542456976035	0.9341512988402784	0.1953173926778839	-0.2166681083652024	-0.2378862569493026	-0.2916360818716816	0.2331652516178915	0.2331652516178908	0.1073299252460438	0.1631718190141646	0.08990635571064595	0.07826809170621145	-0.03327006023903994	-0.03455163750491887	-0.01651291675562094	0.1877994339269182	0.001566564100724473	0.03687151289535023	-0.1236714245586152	0.1965604964225095	0.1965604964225049	-0.05495335450353153	0.009709481520916689	0.0555810875814271	0.01828413584591548	0.1014750209766762	-0.06938410400013212	0.001823405099266641	-0.2369677169895324	0.111696914572991	-0.05164578818481743	-0.02151477655818525	-29.57504784571301	-8.620651489406724	-19.47389517655964	-1.573823569542421	1.075381651754851	-611.5746629910893	65.59953055474912	-1.725104699736218	-1.687668145343046	-0.826574191662957	9.289452721960025	0.06225226671633945	1.772546670480998	-5.761724734879521	9.617461366680629	9.617461366680869	-2.656668905335142	0.5040742578015548	2.705944198658294	0.8742827111784928	5.783398793536253e-08	-5.343088517252669e-09	-3.9299797576743e-07	3.198928551842761e-07	4.88055871176239e-08	-9.310424037069087e-08	-3.818166989792627e-07
0.03	-0.000885205381735927	0.1272254130802119	0.9339457342136048	0.1976475303053532	-0.2166479682500845	-0.2374297696428251	-0.2931625841009131	0.2356024302967439	0.2356024302967422	0.1066472412542921	0.1632916208221035	0.09059496541498489	0.07849562267131063	-0.04930068548279608	-0.05113074229552506	-0.02460070133319851	0.2778015496853713	0.002427845641547761	0.05434547582259908	-0.1812775947066661	0.2904451455405005	0.2904451455404928	-0.08138336068121067	0.01420815068472873	0.08201439259757161	0.02714731961824478	0.09700360265221405	-0.06557136979908239	0.002027030910990187	-0.2332259679342903	0.107463499267942	-0.05189886985600152	-0.01771866866836053	-29.60327630471482	-9.988698946985366	-19.78750445569474	-1.564762851165777	1.443893763179588	-611.816523527406	64.08523676977187	-1.530666105402602	-1.630400251567989	-0.8000036027960389	8.791611362353501	0.0930293770954503	1.722814147584411	-5.707349167640603	9.20944098597859	9.209440985978265	-2.6061834236226	0.4164161507108927	2.593059257769706	0.8811024596554655	5.763459603449455e-08	-1.466532743040555e-08	-3.729567458142251e-07	3.062397023368387e-07	5.543628794726272e-08	-1.826223246115313e-07	-3.617251900330985e-07
0.04	-0.001456469343032808	0.1266333156937846	0.9336592671387574	0.2008648931623215	-0.2166202226636909	-0.2368009440983291	-0.2952546052341997	0.2389655503271015	0.2389655503271001	0.1057062538108515	0.1634551399026818	0.09154411529042017	0.07880953872401221	-0.06487629747484801	-0.0672045913120702	-0.03269340639041651	0.3652444798264454	0.00308765835557271	0.07133916049935161	-0.2367752053696284	0.3817487667233014	0.3817487667233011	-0.1066140448444247	0.01845293605013594	0.1076891218008031	0.03556115336638787	0.09253218432775939	-0.06175863559802412	0.002230656722689369	-0.2294842188790414	0.1032300839628981	-0.05215195152717339	-0.01392256077853455	-29.64095699760475	-11.28462864957138	-20.1042253182328	-1.537228291159209	1.832269334827137	-610.9054308820058	62.32141003394324	-1.634102049395392	-1.586616990530823	-0.8275582875910439	8.777615598484246	0.02195850135667564	1.676491020381732	-5.340012837861829	9.101255779642592	9.101255779644925	-2.416804502442123	0.4532974981205903	2.554229036075711	0.7844127063412601	5.712270721538011e-08	-2.394751633729289e-08	-3.508224209601843e-07	2.907163487844447e-07	6.178770162431275e-08	-2.715467401826091e-07	-3.393957056357848e-07
0.05	-0.002181752545512706	0.125883215493652	0.9332916165503731	0.2049442368741412	-0.2165868439637705	-0.2360051703481007	-0.2978900174097912	0.2432287730155346	0.2432287730155308	0.1045188869449706	0.1636601539688853	0.09274637948270148	0.07920548028139941	-0.08011225280330664	-0.08270903310678669	-0.04085218657952824	0.4501732380279053	0.003587288951700597	0.08770836840264082	-0.2899011337888421	0.4704356593163887	0.4704356593164059	-0.1307182782846576	0.0224859830321908	0.1326554610643677	0.04360123633011456	0.08760221345314145	-0.05887632082498283	0.002431236453077691	-0.2264919813766418	0.09976628171450609	-0.05134375782622772	-0.009714744093331763	-29.68675399701981	-12.28873979274869	-19.9137196076357	-1.585098951778315	1.772482332445874	-610.4093013889991	61.60853416226375	-1.458120906426556	-1.51638302390021	-0.8124142064668408	8.282854774654654	0.06385568505152882	1.601109586469768	-5.237968449997373	8.683377831698854	8.683377831699996	-2.386099746739206	0.3687799610155367	2.451600805356515	0.809898407466468	4.787021110036774e-08	-3.553707665623037e-08	-2.688650828257139e-07	2.215936124061037e-07	6.403007601554699e-08	-3.636440110438057e-07	-2.565501497374898e-07
0.06	-0.003057351027647416	0.1249812658255807	0.9328419028957187	0.2098593379367121	-0.2165484908886255	-0.2350489097366068	-0.3010445059907843	0.2483650589964091	0.2483650589964057	0.1030947043483108	0.1639035928374616	0.09419505995439	0.07968104113163954	-0.09493935340598687	-0.09757448489982436	-0.04910601964446897	0.532395949976476	0.004082533400253411	0.1034365327526201	-0.3405904864499075	0.556361425211758	0.5563614252117801	-0.153977191001906	0.02613789652495005	0.1569723776823195	0.05148501193696592	0.08267224257852744	-0.05599400605193524	0.002631816183462335	-0.2234997438742396	0.09630247946611703	-0.0505355641252733	-0.005506927408128397	-29.73890748979549	-13.22777911493722	-19.72560420882177	-1.616844033308575	1.720318711184858	-608.8821895678541	60.67967841850033	-1.552331104239722	-1.458818990195045	-0.8465688627568394	8.236406347906399	0.02108127184166661	1.548282309719737	-4.852697686232198	8.549030440098997	8.549030440098811	-2.247740357845223	0.3770708002614694	2.424344506953148	0.7531512349662026	3.824968941500178e-08	-4.722378945567522e-08	-1.843888809741728e-07	1.502140599087755e-07	6.609943822632584e-08	-4.558748758119546e-07	-1.711565487233641e-07
0.07000000000000001	-0.004079567717154388	0.1239336822575538	0.9323089383110225	0.2155839669352626	-0.2165057451152637	-0.2339388901476933	-0.3046936714384664	0.2543473383065403	0.2543473383065372	0.1014431972368676	0.1641822788691912	0.09588346332991521	0.08023395338574586	-0.1094290535721677	-0.1118517334672097	-0.05751720166446193	0.6121040575461794	0.004461160690352362	0.1184459556064697	-0.3888820043283348	0.6396548361844222	0.6396548361843998	-0.1761757103289382	0.02954551680152155	0.1805852158230722	0.05906302084264362	0.07720424266188508	-0.05469096403987377	0.002872691853016308	-0.2201191411776048	0.09125269230493244	-0.04779475789880771	-0.00104965689250654	-29.79558870320311	-14.58120844641694	-18.72329207233568	-1.832559032398717	2.032318122972704	-607.5716859097748	61.3746719282894	-1.386038585205747	-1.398590259266064	-0.8430308200032108	7.774147070967212	0.04544521436355734	1.459085790165836	-4.763289024946487	8.153548797972924	8.153548797966357	-2.183640115449589	0.3145662685686665	2.311289963196351	0.7549535932718268	3.007363882417169e-08	-5.876018370952179e-08	-1.495460218457766e-07	-2.661540531479687e-08	7.084829268988859e-08	-5.529163255363032e-07	-2.193318747259153e-08
0.08	-0.00524443123080221	0.122746043710002	0.9316909343164499	0.2220929038314042	-0.2164593747176466	-0.232682413626852	-0.3088149341021924	0.2611493622008249	0.2611493622008199	0.09957415845309854	0.1644934328291227	0.09780430238595977	0.08086161130388965	-0.1234687182342907	-0.1255854808048218	-0.06611390161976904	0.6892575294944789	0.004807458251232971	0.1327279191382499	-0.4350099296587036	0.720310342041998	0.7203103420419319	-0.1974835254686662	0.0326314821666407	0.2034595137862255	0.06643414474445286	0.07173624274524924	-0.05338792202781048	0.003113567522540849	-0.2167385384809659	0.08620290514374963	-0.04505395167233818	0.003407613623119904	-29.85469053091049	-15.87633991215885	-17.7202571539391	-2.037555618500586	2.335985702791603	-605.3568865721866	61.90504975033214	-1.462324003428183	-1.350118744240405	-0.8836724498196655	7.725479223625661	0.01461532599800406	1.402790445305825	-4.419979176620497	8.021449417081305	8.021449417081286	-2.069599520384386	0.3127398179710013	2.276636471433246	0.7117742341925203	2.199077991686006e-08	-7.028687999268459e-08	-1.179053138608092e-07	-2.102480907142557e-07	7.577001762137285e-08	-6.502681355804064e-07	1.314082228257065e-07
